<mxfile host="65bd71144e">
    <diagram name="Page-1" id="5d7acffa-a066-3a61-03fe-96351882024d">
        <mxGraphModel dx="1462" dy="467" grid="1" gridSize="10" guides="1" tooltips="1" connect="1" arrows="1" fold="1" page="1" pageScale="1" pageWidth="1100" pageHeight="850" background="#ffffff" math="0" shadow="0">
            <root>
                <mxCell id="0"/>
                <mxCell id="1" parent="0"/>
                <mxCell id="87" value="" style="shape=umlLifeline;participant=umlEntity;perimeter=lifelinePerimeter;whiteSpace=wrap;html=1;container=1;collapsible=0;recursiveResize=0;verticalAlign=top;spacingTop=36;outlineConnect=0;strokeColor=#99DA07;fontFamily=Arial Nova Light;fontColor=#464749;fillColor=#B8E720;" parent="1" vertex="1">
                    <mxGeometry x="500" y="80" width="40" height="490" as="geometry"/>
                </mxCell>
                <mxCell id="HNQg6clbK13Vixkf8dOm-122" value="" style="html=1;points=[];perimeter=orthogonalPerimeter;outlineConnect=0;targetShapes=umlLifeline;portConstraint=eastwest;newEdgeStyle={&quot;edgeStyle&quot;:&quot;elbowEdgeStyle&quot;,&quot;elbow&quot;:&quot;vertical&quot;,&quot;curved&quot;:0,&quot;rounded&quot;:0};fontFamily=Arial Nova Light;fillColor=#B8E720;fontColor=#464749;strokeColor=#99DA07;" parent="87" vertex="1">
                    <mxGeometry x="15" y="110" width="10" height="360" as="geometry"/>
                </mxCell>
                <mxCell id="108" value="&lt;span style=&quot;font-size: 12px;&quot;&gt;ASR&lt;/span&gt;" style="rounded=0;whiteSpace=wrap;html=1;strokeColor=none;fontFamily=Arial Nova Light;fontSize=6;fontColor=#464749;fillColor=#FFFFFF;fontStyle=1" vertex="1" parent="87">
                    <mxGeometry y="50" width="40" height="20" as="geometry"/>
                </mxCell>
                <mxCell id="88" value="" style="shape=umlLifeline;participant=umlEntity;perimeter=lifelinePerimeter;whiteSpace=wrap;html=1;container=1;collapsible=0;recursiveResize=0;verticalAlign=top;spacingTop=36;outlineConnect=0;strokeColor=#1399DB;fontFamily=Arial Nova Light;fontColor=#464749;fillColor=#44BBF1;" parent="1" vertex="1">
                    <mxGeometry x="300" y="80" width="40" height="490" as="geometry"/>
                </mxCell>
                <mxCell id="HNQg6clbK13Vixkf8dOm-96" value="" style="html=1;points=[];perimeter=orthogonalPerimeter;outlineConnect=0;targetShapes=umlLifeline;portConstraint=eastwest;newEdgeStyle={&quot;edgeStyle&quot;:&quot;elbowEdgeStyle&quot;,&quot;elbow&quot;:&quot;vertical&quot;,&quot;curved&quot;:0,&quot;rounded&quot;:0};fontFamily=Arial Nova Light;fillColor=#44BBF1;fontColor=#464749;strokeColor=#1399DB;" parent="88" vertex="1">
                    <mxGeometry x="15" y="80.05" width="10" height="29.95" as="geometry"/>
                </mxCell>
                <mxCell id="HNQg6clbK13Vixkf8dOm-108" value="" style="html=1;points=[];perimeter=orthogonalPerimeter;outlineConnect=0;targetShapes=umlLifeline;portConstraint=eastwest;newEdgeStyle={&quot;edgeStyle&quot;:&quot;elbowEdgeStyle&quot;,&quot;elbow&quot;:&quot;vertical&quot;,&quot;curved&quot;:0,&quot;rounded&quot;:0};fontFamily=Arial Nova Light;fillColor=#44BBF1;fontColor=#464749;strokeColor=#1399DB;" parent="88" vertex="1">
                    <mxGeometry x="15" y="325" width="10" height="20" as="geometry"/>
                </mxCell>
                <mxCell id="89" value="" style="html=1;points=[];perimeter=orthogonalPerimeter;strokeColor=#1399DB;fontFamily=Arial Nova Light;fontColor=#464749;fillColor=#44BBF1;" parent="88" vertex="1">
                    <mxGeometry x="15" y="270" width="10" height="30" as="geometry"/>
                </mxCell>
                <mxCell id="97" value="" style="html=1;points=[];perimeter=orthogonalPerimeter;strokeColor=#1399DB;fontFamily=Arial Nova Light;fontColor=#464749;fillColor=#44BBF1;" parent="88" vertex="1">
                    <mxGeometry x="15" y="420" width="10" height="30" as="geometry"/>
                </mxCell>
                <mxCell id="HNQg6clbK13Vixkf8dOm-91" value="" style="shape=umlLifeline;participant=umlEntity;perimeter=lifelinePerimeter;whiteSpace=wrap;html=1;container=1;collapsible=0;recursiveResize=0;verticalAlign=top;spacingTop=36;outlineConnect=0;strokeColor=#1399DB;fontFamily=Arial Nova Light;fontColor=#464749;fillColor=#44BBF1;" parent="1" vertex="1">
                    <mxGeometry x="420" y="80" width="40" height="490" as="geometry"/>
                </mxCell>
                <mxCell id="HNQg6clbK13Vixkf8dOm-105" value="" style="html=1;points=[];perimeter=orthogonalPerimeter;outlineConnect=0;targetShapes=umlLifeline;portConstraint=eastwest;newEdgeStyle={&quot;edgeStyle&quot;:&quot;elbowEdgeStyle&quot;,&quot;elbow&quot;:&quot;vertical&quot;,&quot;curved&quot;:0,&quot;rounded&quot;:0};fontFamily=Arial Nova Light;fillColor=#44BBF1;fontColor=#464749;strokeColor=#1399DB;" parent="HNQg6clbK13Vixkf8dOm-91" vertex="1">
                    <mxGeometry x="15" y="90.03" width="10" height="10" as="geometry"/>
                </mxCell>
                <mxCell id="HNQg6clbK13Vixkf8dOm-110" value="" style="html=1;points=[];perimeter=orthogonalPerimeter;outlineConnect=0;targetShapes=umlLifeline;portConstraint=eastwest;newEdgeStyle={&quot;edgeStyle&quot;:&quot;elbowEdgeStyle&quot;,&quot;elbow&quot;:&quot;vertical&quot;,&quot;curved&quot;:0,&quot;rounded&quot;:0};fontFamily=Arial Nova Light;fillColor=#44BBF1;fontColor=#464749;strokeColor=#1399DB;" parent="HNQg6clbK13Vixkf8dOm-91" vertex="1">
                    <mxGeometry x="-65" y="210" width="10" height="10" as="geometry"/>
                </mxCell>
                <mxCell id="HNQg6clbK13Vixkf8dOm-112" value="" style="html=1;points=[];perimeter=orthogonalPerimeter;outlineConnect=0;targetShapes=umlLifeline;portConstraint=eastwest;newEdgeStyle={&quot;edgeStyle&quot;:&quot;elbowEdgeStyle&quot;,&quot;elbow&quot;:&quot;vertical&quot;,&quot;curved&quot;:0,&quot;rounded&quot;:0};fontFamily=Arial Nova Light;fillColor=#44BBF1;fontColor=#464749;strokeColor=#1399DB;" parent="HNQg6clbK13Vixkf8dOm-91" vertex="1">
                    <mxGeometry x="15" y="220" width="10" height="10" as="geometry"/>
                </mxCell>
                <mxCell id="HNQg6clbK13Vixkf8dOm-113" value="Reset" style="html=1;verticalAlign=bottom;startArrow=oval;endArrow=block;startSize=8;elbow=vertical;rounded=0;fontFamily=Arial Nova Light;" parent="HNQg6clbK13Vixkf8dOm-91" source="HNQg6clbK13Vixkf8dOm-110" target="HNQg6clbK13Vixkf8dOm-112" edge="1">
                    <mxGeometry relative="1" as="geometry">
                        <mxPoint x="-45" y="214.05" as="sourcePoint"/>
                    </mxGeometry>
                </mxCell>
                <mxCell id="HNQg6clbK13Vixkf8dOm-93" value="" style="shape=umlLifeline;participant=umlEntity;perimeter=lifelinePerimeter;whiteSpace=wrap;html=1;container=1;collapsible=0;recursiveResize=0;verticalAlign=top;spacingTop=36;outlineConnect=0;strokeColor=#99DA07;fontFamily=Arial Nova Light;fontColor=#464749;fillColor=#B8E720;" parent="1" vertex="1">
                    <mxGeometry x="600" y="80" width="40" height="490" as="geometry"/>
                </mxCell>
                <mxCell id="HNQg6clbK13Vixkf8dOm-124" value="" style="html=1;points=[];perimeter=orthogonalPerimeter;outlineConnect=0;targetShapes=umlLifeline;portConstraint=eastwest;newEdgeStyle={&quot;edgeStyle&quot;:&quot;elbowEdgeStyle&quot;,&quot;elbow&quot;:&quot;vertical&quot;,&quot;curved&quot;:0,&quot;rounded&quot;:0};fontFamily=Arial Nova Light;fillColor=#B8E720;fontColor=#464749;strokeColor=#99DA07;" parent="HNQg6clbK13Vixkf8dOm-93" vertex="1">
                    <mxGeometry x="15" y="180" width="10" height="20" as="geometry"/>
                </mxCell>
                <mxCell id="92" value="" style="html=1;points=[];perimeter=orthogonalPerimeter;outlineConnect=0;targetShapes=umlLifeline;portConstraint=eastwest;newEdgeStyle={&quot;edgeStyle&quot;:&quot;elbowEdgeStyle&quot;,&quot;elbow&quot;:&quot;vertical&quot;,&quot;curved&quot;:0,&quot;rounded&quot;:0};fontFamily=Arial Nova Light;fillColor=#B8E720;fontColor=#464749;strokeColor=#99DA07;" parent="HNQg6clbK13Vixkf8dOm-93" vertex="1">
                    <mxGeometry x="15" y="310" width="10" height="20" as="geometry"/>
                </mxCell>
                <mxCell id="101" value="" style="html=1;points=[];perimeter=orthogonalPerimeter;outlineConnect=0;targetShapes=umlLifeline;portConstraint=eastwest;newEdgeStyle={&quot;edgeStyle&quot;:&quot;elbowEdgeStyle&quot;,&quot;elbow&quot;:&quot;vertical&quot;,&quot;curved&quot;:0,&quot;rounded&quot;:0};fontFamily=Arial Nova Light;fillColor=#B8E720;fontColor=#464749;strokeColor=#99DA07;" parent="HNQg6clbK13Vixkf8dOm-93" vertex="1">
                    <mxGeometry x="15" y="120" width="10" height="20" as="geometry"/>
                </mxCell>
                <mxCell id="HNQg6clbK13Vixkf8dOm-95" value="" style="shape=umlLifeline;perimeter=lifelinePerimeter;whiteSpace=wrap;html=1;container=1;dropTarget=0;collapsible=0;recursiveResize=0;outlineConnect=0;portConstraint=eastwest;newEdgeStyle={&quot;edgeStyle&quot;:&quot;elbowEdgeStyle&quot;,&quot;elbow&quot;:&quot;vertical&quot;,&quot;curved&quot;:0,&quot;rounded&quot;:0};participant=umlActor;fontFamily=Arial Nova Light;" parent="1" vertex="1">
                    <mxGeometry x="200" y="80" width="20" height="490" as="geometry"/>
                </mxCell>
                <mxCell id="HNQg6clbK13Vixkf8dOm-106" value="Reset" style="html=1;verticalAlign=bottom;startArrow=oval;endArrow=block;startSize=8;elbow=vertical;rounded=0;fontFamily=Arial Nova Light;" parent="1" source="HNQg6clbK13Vixkf8dOm-96" target="HNQg6clbK13Vixkf8dOm-105" edge="1">
                    <mxGeometry relative="1" as="geometry">
                        <mxPoint x="365" y="185" as="sourcePoint"/>
                        <Array as="points">
                            <mxPoint x="400" y="170"/>
                        </Array>
                        <mxPoint as="offset"/>
                    </mxGeometry>
                </mxCell>
                <mxCell id="HNQg6clbK13Vixkf8dOm-109" value="Expired" style="html=1;verticalAlign=bottom;startArrow=oval;endArrow=block;startSize=8;elbow=vertical;rounded=0;fontFamily=Arial Nova Light;" parent="1" target="HNQg6clbK13Vixkf8dOm-108" edge="1">
                    <mxGeometry relative="1" as="geometry">
                        <mxPoint x="439.5" y="405" as="sourcePoint"/>
                        <Array as="points">
                            <mxPoint x="410" y="405"/>
                        </Array>
                    </mxGeometry>
                </mxCell>
                <mxCell id="HNQg6clbK13Vixkf8dOm-115" value="&lt;font&gt;Expired&lt;/font&gt;" style="html=1;verticalAlign=bottom;startArrow=oval;endArrow=block;startSize=8;elbow=vertical;rounded=0;fontFamily=Arial Nova Light;" parent="1" source="HNQg6clbK13Vixkf8dOm-93" target="HNQg6clbK13Vixkf8dOm-122" edge="1">
                    <mxGeometry x="-0.3757" relative="1" as="geometry">
                        <mxPoint x="640" y="350" as="sourcePoint"/>
                        <mxPoint x="520" y="350" as="targetPoint"/>
                        <mxPoint as="offset"/>
                        <Array as="points">
                            <mxPoint x="590" y="340"/>
                        </Array>
                    </mxGeometry>
                </mxCell>
                <mxCell id="HNQg6clbK13Vixkf8dOm-123" value="Command (&quot;Switch on the lights&quot;)" style="html=1;verticalAlign=bottom;startArrow=oval;endArrow=block;startSize=8;elbow=vertical;rounded=0;fontFamily=Arial Nova Light;" parent="1" source="HNQg6clbK13Vixkf8dOm-95" target="HNQg6clbK13Vixkf8dOm-122" edge="1">
                    <mxGeometry x="-0.3447" y="-10" relative="1" as="geometry">
                        <mxPoint x="540" y="170" as="sourcePoint"/>
                        <mxPoint as="offset"/>
                        <Array as="points">
                            <mxPoint x="480" y="250"/>
                        </Array>
                    </mxGeometry>
                </mxCell>
                <mxCell id="HNQg6clbK13Vixkf8dOm-125" value="Reset" style="html=1;verticalAlign=bottom;startArrow=oval;endArrow=block;startSize=8;elbow=vertical;rounded=0;fontFamily=Arial Nova Light;" parent="1" target="HNQg6clbK13Vixkf8dOm-124" edge="1">
                    <mxGeometry x="-0.6429" relative="1" as="geometry">
                        <mxPoint x="525" y="260" as="sourcePoint"/>
                        <Array as="points">
                            <mxPoint x="610" y="260"/>
                        </Array>
                        <mxPoint as="offset"/>
                    </mxGeometry>
                </mxCell>
                <mxCell id="90" value="&lt;font color=&quot;#000000&quot;&gt;LP_Req&lt;/font&gt;" style="html=1;verticalAlign=bottom;endArrow=block;strokeColor=#000000;fontFamily=Arial Nova Light;fontColor=#222020;fillColor=#D1D3D4;entryX=1.013;entryY=0.005;entryDx=0;entryDy=0;entryPerimeter=0;" parent="1" target="89" edge="1">
                    <mxGeometry x="-0.6712" relative="1" as="geometry">
                        <mxPoint x="515" y="350" as="sourcePoint"/>
                        <mxPoint x="450" y="340" as="targetPoint"/>
                        <mxPoint as="offset"/>
                    </mxGeometry>
                </mxCell>
                <mxCell id="91" value="NAK" style="html=1;verticalAlign=bottom;endArrow=open;dashed=1;endSize=8;exitX=0.993;exitY=0.996;strokeColor=#000000;fontFamily=Arial Nova Light;fontColor=#000000;fillColor=#FFFFFF;exitDx=0;exitDy=0;exitPerimeter=0;" parent="1" source="89" target="HNQg6clbK13Vixkf8dOm-122" edge="1">
                    <mxGeometry x="-0.702" relative="1" as="geometry">
                        <mxPoint x="515" y="400" as="targetPoint"/>
                        <Array as="points">
                            <mxPoint x="470" y="380"/>
                        </Array>
                        <mxPoint as="offset"/>
                    </mxGeometry>
                </mxCell>
                <mxCell id="93" value="Reset" style="html=1;verticalAlign=bottom;startArrow=oval;endArrow=block;startSize=8;elbow=vertical;rounded=0;fontFamily=Arial Nova Light;" parent="1" target="92" edge="1">
                    <mxGeometry x="-0.5886" relative="1" as="geometry">
                        <mxPoint x="525" y="390" as="sourcePoint"/>
                        <mxPoint as="offset"/>
                    </mxGeometry>
                </mxCell>
                <mxCell id="HNQg6clbK13Vixkf8dOm-97" value="&quot;Hello XMOS&quot;" style="html=1;verticalAlign=bottom;startArrow=oval;endArrow=block;startSize=8;elbow=vertical;rounded=0;fontFamily=Arial Nova Light;" parent="1" source="HNQg6clbK13Vixkf8dOm-95" target="HNQg6clbK13Vixkf8dOm-96" edge="1">
                    <mxGeometry x="-0.0486" y="-10" relative="1" as="geometry">
                        <mxPoint x="290" y="160.05" as="sourcePoint"/>
                        <mxPoint as="offset"/>
                        <Array as="points">
                            <mxPoint x="310" y="160"/>
                        </Array>
                    </mxGeometry>
                </mxCell>
                <mxCell id="HNQg6clbK13Vixkf8dOm-111" value="&quot;Hello XMOS&quot;" style="html=1;verticalAlign=bottom;startArrow=oval;endArrow=block;startSize=8;elbow=vertical;rounded=0;fontFamily=Arial Nova Light;" parent="1" source="HNQg6clbK13Vixkf8dOm-95" target="HNQg6clbK13Vixkf8dOm-110" edge="1">
                    <mxGeometry x="-0.3112" y="-10" relative="1" as="geometry">
                        <mxPoint x="290" y="294.1" as="sourcePoint"/>
                        <mxPoint as="offset"/>
                        <Array as="points">
                            <mxPoint x="320" y="290"/>
                        </Array>
                    </mxGeometry>
                </mxCell>
                <mxCell id="100" value="Full_Power" style="html=1;verticalAlign=bottom;startArrow=oval;endArrow=block;startSize=8;elbow=vertical;rounded=0;fontFamily=Arial Nova Light;" parent="1" source="HNQg6clbK13Vixkf8dOm-96" edge="1" target="HNQg6clbK13Vixkf8dOm-122">
                    <mxGeometry x="-0.4211" relative="1" as="geometry">
                        <mxPoint x="360" y="180" as="sourcePoint"/>
                        <mxPoint x="520" y="190" as="targetPoint"/>
                        <Array as="points">
                            <mxPoint x="380" y="190"/>
                            <mxPoint x="480" y="190"/>
                        </Array>
                        <mxPoint as="offset"/>
                    </mxGeometry>
                </mxCell>
                <mxCell id="102" value="Reset" style="html=1;verticalAlign=bottom;startArrow=oval;endArrow=block;startSize=8;elbow=vertical;rounded=0;fontFamily=Arial Nova Light;" parent="1" target="101" edge="1">
                    <mxGeometry x="-0.6429" relative="1" as="geometry">
                        <mxPoint x="525" y="200" as="sourcePoint"/>
                        <Array as="points">
                            <mxPoint x="580" y="200"/>
                        </Array>
                        <mxPoint as="offset"/>
                    </mxGeometry>
                </mxCell>
                <mxCell id="103" value="&lt;font&gt;Expired&lt;/font&gt;" style="html=1;verticalAlign=bottom;startArrow=oval;endArrow=block;startSize=8;elbow=vertical;rounded=0;fontFamily=Arial Nova Light;" parent="1" source="HNQg6clbK13Vixkf8dOm-93" target="HNQg6clbK13Vixkf8dOm-122" edge="1">
                    <mxGeometry x="-0.3757" relative="1" as="geometry">
                        <mxPoint x="634.4999999999998" y="490" as="sourcePoint"/>
                        <mxPoint x="520" y="490" as="targetPoint"/>
                        <mxPoint as="offset"/>
                        <Array as="points">
                            <mxPoint x="585" y="490"/>
                        </Array>
                    </mxGeometry>
                </mxCell>
                <mxCell id="99" value="ACK" style="html=1;verticalAlign=bottom;endArrow=open;dashed=1;endSize=8;exitX=0.993;exitY=0.996;strokeColor=#000000;fontFamily=Arial Nova Light;fontColor=#000000;fillColor=#FFFFFF;exitDx=0;exitDy=0;exitPerimeter=0;" parent="1" source="97" edge="1" target="HNQg6clbK13Vixkf8dOm-122">
                    <mxGeometry x="-0.702" relative="1" as="geometry">
                        <mxPoint x="520" y="530" as="targetPoint"/>
                        <Array as="points">
                            <mxPoint x="440" y="530"/>
                        </Array>
                        <mxPoint as="offset"/>
                    </mxGeometry>
                </mxCell>
                <mxCell id="HNQg6clbK13Vixkf8dOm-104" value="&lt;font style=&quot;font-size: 8px;&quot;&gt;&lt;b&gt;Tile 0&lt;/b&gt;&lt;/font&gt;" style="text;html=1;align=center;verticalAlign=middle;resizable=0;points=[];autosize=1;strokeColor=#99DA07;fillColor=#B8E720;fontFamily=Arial Nova Light;fontColor=#464749;" parent="1" vertex="1">
                    <mxGeometry x="690" y="520" width="40" height="30" as="geometry"/>
                </mxCell>
                <mxCell id="104" value="&lt;font style=&quot;font-size: 8px;&quot;&gt;&lt;b&gt;Tile 1&lt;/b&gt;&lt;/font&gt;" style="text;html=1;align=center;verticalAlign=middle;resizable=0;points=[];autosize=1;strokeColor=#1399DB;fillColor=#44BBF1;fontFamily=Arial Nova Light;fontColor=#464749;" vertex="1" parent="1">
                    <mxGeometry x="690" y="480" width="40" height="30" as="geometry"/>
                </mxCell>
                <mxCell id="105" value="&lt;span style=&quot;font-size: 12px;&quot;&gt;Awake Timer&lt;/span&gt;" style="rounded=0;whiteSpace=wrap;html=1;strokeColor=none;fontFamily=Arial Nova Light;fontSize=6;fontColor=#464749;fillColor=default;fontStyle=1" vertex="1" parent="1">
                    <mxGeometry x="400" y="130" width="80" height="20" as="geometry"/>
                </mxCell>
                <mxCell id="107" value="&lt;span style=&quot;font-size: 12px;&quot;&gt;Pwr State + ASR&lt;/span&gt;" style="rounded=0;whiteSpace=wrap;html=1;strokeColor=none;fontFamily=Arial Nova Light;fontSize=6;fontColor=#464749;fillColor=#FFFFFF;fontStyle=1" vertex="1" parent="1">
                    <mxGeometry x="270" y="130" width="100" height="20" as="geometry"/>
                </mxCell>
                <mxCell id="109" value="&lt;span style=&quot;font-size: 12px;&quot;&gt;Intent Timer&lt;/span&gt;" style="rounded=0;whiteSpace=wrap;html=1;strokeColor=none;fontFamily=Arial Nova Light;fontSize=6;fontColor=#464749;fillColor=#FFFFFF;fontStyle=1" vertex="1" parent="1">
                    <mxGeometry x="580" y="130" width="80" height="20" as="geometry"/>
                </mxCell>
                <mxCell id="98" value="&lt;font color=&quot;#000000&quot;&gt;LP_Req&lt;/font&gt;" style="html=1;verticalAlign=bottom;endArrow=block;strokeColor=#000000;fontFamily=Arial Nova Light;fontColor=#222020;fillColor=#D1D3D4;entryX=1.013;entryY=0.005;entryDx=0;entryDy=0;entryPerimeter=0;" parent="1" target="97" edge="1" source="HNQg6clbK13Vixkf8dOm-122">
                    <mxGeometry x="-0.6712" relative="1" as="geometry">
                        <mxPoint x="475" y="500.00000000000006" as="sourcePoint"/>
                        <mxPoint x="410" y="490.00000000000006" as="targetPoint"/>
                        <mxPoint as="offset"/>
                    </mxGeometry>
                </mxCell>
            </root>
        </mxGraphModel>
    </diagram>
</mxfile>
